<svg width="1920" height="1262" viewBox="0 0 1920 1262" fill="none" xmlns="http://www.w3.org/2000/svg">
    <g clip-path="url(#clip0_311_50)">
        <g filter="url(#filter0_f_311_50)">
            <circle cx="960" cy="631" r="225" fill="#2D92FF"/>
        </g>
        <circle cx="1751.26" cy="946.772" r="2" transform="rotate(113.954 1751.26 946.772)" fill="#7f7f7f" fill-opacity="1"/>
        <circle cx="1636.32" cy="991.005" r="2" transform="rotate(113.954 1636.32 991.005)" fill="#7f7f7f" fill-opacity="1"/>
        <circle cx="1799.93" cy="1158.99" r="2" transform="rotate(113.954 1799.93 1158.99)" fill="#7f7f7f" fill-opacity="1"/>
        <circle cx="1309.6" cy="1149.82" r="2" transform="rotate(113.954 1309.6 1149.82)" fill="#7f7f7f" fill-opacity="1"/>
        <circle cx="1446.22" cy="1097.13" r="2" transform="rotate(113.954 1446.22 1097.13)" fill="#7f7f7f" fill-opacity="1"/>
        <circle cx="1361.86" cy="942.224" r="2" transform="rotate(113.954 1361.86 942.224)" fill="#7f7f7f" fill-opacity="1"/>
        <circle cx="1478.16" cy="981.956" r="2" transform="rotate(113.954 1478.16 981.956)" fill="#7f7f7f" fill-opacity="1"/>
        <circle cx="1194.44" cy="1064.4" r="2" transform="rotate(113.954 1194.44 1064.4)" fill="#7f7f7f" fill-opacity="1"/>
        <circle cx="1295.54" cy="769.822" r="2" transform="rotate(113.954 1295.54 769.822)" fill="#7f7f7f" fill-opacity="1"/>
        <circle cx="1262.38" cy="898.029" r="2" transform="rotate(113.954 1262.38 898.029)" fill="#7f7f7f" fill-opacity="1"/>
        <circle cx="1336.92" cy="1024.36" r="2" transform="rotate(113.954 1336.92 1024.36)" fill="#7f7f7f" fill-opacity="1"/>
        <circle cx="1546.39" cy="582.841" r="2" transform="rotate(113.954 1546.39 582.841)" fill="#7f7f7f" fill-opacity="1"/>
        <circle cx="1264.53" cy="385.157" r="2" transform="rotate(-179.476 1264.53 385.157)" fill="#7f7f7f" fill-opacity="1"/>
        <circle cx="1177.03" cy="296.045" r="2" transform="rotate(-179.476 1177.03 296.045)" fill="#7f7f7f" fill-opacity="1"/>
        <circle cx="1019.38" cy="879.764" r="2" transform="rotate(-179.476 1019.38 879.764)" fill="#7f7f7f" fill-opacity="1"/>
        <circle cx="800.289" cy="701.161" r="2" transform="rotate(-179.476 800.289 701.161)" fill="#7f7f7f" fill-opacity="1"/>
        <circle cx="934.324" cy="525.796" r="2" transform="rotate(-179.476 934.324 525.796)" fill="#7f7f7f" fill-opacity="1"/>
        <circle cx="977.27" cy="658.631" r="2" transform="rotate(-179.476 977.27 658.631)" fill="#7f7f7f" fill-opacity="1"/>
        <circle cx="843.235" cy="834" r="2" transform="rotate(-179.476 843.235 834)" fill="#7f7f7f" fill-opacity="1"/>
        <circle cx="796.125" cy="552.13" r="2" transform="rotate(-179.476 796.125 552.13)" fill="#7f7f7f" fill-opacity="1"/>
        <circle cx="1110.9" cy="527.419" r="2" transform="rotate(-179.476 1110.9 527.419)" fill="#7f7f7f" fill-opacity="1"/>
        <circle cx="157.688" cy="67.5619" r="2" transform="rotate(118.947 157.688 67.5619)" fill="#7f7f7f" fill-opacity="1"/>
        <circle cx="108.798" cy="205.678" r="2" transform="rotate(118.947 108.798 205.678)" fill="#7f7f7f" fill-opacity="1"/>
        <circle cx="336.177" cy="441.55" r="2" transform="rotate(118.947 336.177 441.55)" fill="#7f7f7f" fill-opacity="1"/>
        <circle cx="342.895" cy="285.115" r="2" transform="rotate(118.947 342.895 285.115)" fill="#7f7f7f" fill-opacity="1"/>
        <circle cx="1082.4" cy="25.0966" r="2" transform="rotate(60.0765 1082.4 25.0966)" fill="#7f7f7f" fill-opacity="1"/>
        <circle cx="1125.67" cy="42.0658" r="2" transform="rotate(60.0765 1125.67 42.0658)" fill="#7f7f7f" fill-opacity="1"/>
        <circle cx="1651.54" cy="79.0966" r="2" transform="rotate(60.0765 1651.54 79.0966)" fill="#7f7f7f" fill-opacity="1"/>
        <circle cx="1599.6" cy="417.068" r="2" transform="rotate(60.0765 1599.6 417.068)" fill="#7f7f7f" fill-opacity="1"/>
        <circle cx="1580.4" cy="558.444" r="2" transform="rotate(60.0765 1580.4 558.444)" fill="#7f7f7f" fill-opacity="1"/>
        <circle cx="1692.6" cy="432.235" r="2" transform="rotate(60.0765 1692.6 432.235)" fill="#7f7f7f" fill-opacity="1"/>
        <circle cx="1610.9" cy="716.186" r="2" transform="rotate(60.0765 1610.9 716.186)" fill="#7f7f7f" fill-opacity="1"/>
        <circle cx="1501.69" cy="119.049" r="2" transform="rotate(60.0765 1501.69 119.049)" fill="#7f7f7f" fill-opacity="1"/>
        <circle cx="1604.73" cy="244.577" r="2" transform="rotate(60.0765 1604.73 244.577)" fill="#7f7f7f" fill-opacity="1"/>
        <circle cx="1854.15" cy="191.031" r="2" transform="rotate(60.0765 1854.15 191.031)" fill="#7f7f7f" fill-opacity="1"/>
        <circle cx="1809.53" cy="65.0966" r="2" transform="rotate(60.0765 1809.53 65.0966)" fill="#7f7f7f" fill-opacity="1"/>
        <circle cx="796.83" cy="619.52" r="2" transform="rotate(60.0765 796.83 619.52)" fill="#7f7f7f" fill-opacity="1"/>
        <circle cx="610.768" cy="1117.48" r="2" transform="rotate(60.0765 610.768 1117.48)" fill="#7f7f7f" fill-opacity="1"/>
        <circle cx="332.447" cy="1121.06" r="2" transform="rotate(60.0765 332.447 1121.06)" fill="#7f7f7f" fill-opacity="1"/>
        <circle cx="112.83" cy="907.049" r="2" transform="rotate(60.0765 112.83 907.049)" fill="#7f7f7f" fill-opacity="1"/>
        <circle cx="215.873" cy="1032.58" r="2" transform="rotate(60.0765 215.873 1032.58)" fill="#7f7f7f" fill-opacity="1"/>
        <circle cx="465.291" cy="979.031" r="2" transform="rotate(60.0765 465.291 979.031)" fill="#7f7f7f" fill-opacity="1"/>
        <circle cx="420.674" cy="853.097" r="2" transform="rotate(60.0765 420.674 853.097)" fill="#7f7f7f" fill-opacity="1"/>
        <circle cx="698.028" cy="661.684" r="2" transform="rotate(-179.476 698.028 661.684)" fill="#7f7f7f" fill-opacity="1"/>
        <circle cx="607.121" cy="947.813" r="2" transform="rotate(-179.476 607.121 947.813)" fill="#7f7f7f" fill-opacity="1"/>
        <circle cx="740.149" cy="882.806" r="2" transform="rotate(-179.476 740.149 882.806)" fill="#7f7f7f" fill-opacity="1"/>
        <circle cx="356.337" cy="324.045" r="2" transform="rotate(118.947 356.337 324.045)" fill="#7f7f7f" fill-opacity="1"/>
        <circle cx="245.052" cy="328.569" r="2" transform="rotate(118.947 245.052 328.569)" fill="#7f7f7f" fill-opacity="1"/>
        <circle cx="409.204" cy="529.466" r="2" transform="rotate(118.947 409.204 529.466)" fill="#7f7f7f" fill-opacity="1"/>
        <circle cx="123.993" cy="646.97" r="2" transform="rotate(118.947 123.993 646.97)" fill="#7f7f7f" fill-opacity="1"/>
        <circle cx="38.3173" cy="452.244" r="2" transform="rotate(118.947 38.3173 452.244)" fill="#7f7f7f" fill-opacity="1"/>
        <circle cx="188.114" cy="480.035" r="2" transform="rotate(118.947 188.114 480.035)" fill="#7f7f7f" fill-opacity="1"/>
        <circle cx="286.399" cy="741.614" r="2" transform="rotate(118.947 286.399 741.614)" fill="#7f7f7f" fill-opacity="1"/>
    </g>
    <defs>
        <filter id="filter0_f_311_50" x="235" y="-94" width="1450" height="1450" filterUnits="userSpaceOnUse" color-interpolation-filters="sRGB">
            <feFlood flood-opacity="0" result="BackgroundImageFix"/>
            <feBlend mode="normal" in="SourceGraphic" in2="BackgroundImageFix" result="shape"/>
            <feGaussianBlur stdDeviation="250" result="effect1_foregroundBlur_311_50"/>
        </filter>
        <clipPath id="clip0_311_50">
            <rect width="1920" height="1262" rx="24" fill="white"/>
        </clipPath>
    </defs>
</svg>
