<svg width="1920" height="1262" viewBox="0 0 1920 1262" fill="none" xmlns="http://www.w3.org/2000/svg">
    <g clip-path="url(#clip0_311_50)">
        <mask id="mask0_311_50" style="mask-type:alpha" maskUnits="userSpaceOnUse" x="-11" y="0" width="1920" height="1262">
            <rect x="-11" width="1920" height="1262" fill="url(#paint0_radial_311_50)"/>
        </mask>
        <g mask="url(#mask0_311_50)">
            <path d="M415.348 59.9189L481.238 23.1452L547.128 59.9189V133.408L481.238 170.182L415.348 133.408V59.9189Z" stroke="#7F7F7F" stroke-width="2"/>
            <path d="M547.903 59.9189L613.793 23.1452L679.682 59.9189V133.408L613.793 170.182L547.903 133.408V59.9189Z" stroke="#7F7F7F" stroke-width="2"/>
            <path d="M680.461 59.9189L746.351 23.1452L812.241 59.9189V133.408L746.351 170.182L680.461 133.408V59.9189Z" stroke="#7F7F7F" stroke-width="2"/>
            <path d="M813.02 59.9189L878.91 23.1452L944.8 59.9189V133.408L878.91 170.182L813.02 133.408V59.9189Z" stroke="#7F7F7F" stroke-width="2"/>
            <path d="M945.574 59.9189L1011.46 23.1452L1077.35 59.9189V133.408L1011.46 170.182L945.574 133.408V59.9189Z" stroke="#7F7F7F" stroke-width="2"/>
            <path d="M1078.13 59.9189L1144.02 23.1452L1209.91 59.9189V133.408L1144.02 170.182L1078.13 133.408V59.9189Z" stroke="#7F7F7F" stroke-width="2"/>
            <path d="M1210.69 59.9189L1276.58 23.1452L1342.47 59.9189V133.408L1276.58 170.182L1210.69 133.408V59.9189Z" stroke="#7F7F7F" stroke-width="2"/>
            <path d="M1343.25 59.9189L1409.14 23.1452L1475.03 59.9189V133.408L1409.14 170.182L1343.25 133.408V59.9189Z" stroke="#7F7F7F" stroke-width="2"/>
            <path d="M1475.8 59.9189L1541.69 23.1452L1607.58 59.9189V133.408L1541.69 170.182L1475.8 133.408V59.9189Z" stroke="#7F7F7F" stroke-width="2"/>
            <path d="M1608.36 59.9189L1674.25 23.1452L1740.14 59.9189V133.408L1674.25 170.182L1608.36 133.408V59.9189Z" stroke="#7F7F7F" stroke-width="2"/>
            <path d="M348.348 168.919L414.238 132.145L480.128 168.919V242.408L414.238 279.182L348.348 242.408V168.919Z" stroke="#7F7F7F" stroke-width="2"/>
            <path d="M480.903 168.919L546.793 132.145L612.682 168.919V242.408L546.793 279.182L480.903 242.408V168.919Z" stroke="#7F7F7F" stroke-width="2"/>
            <path d="M613.461 168.919L679.351 132.145L745.241 168.919V242.408L679.351 279.182L613.461 242.408V168.919Z" stroke="#7F7F7F" stroke-width="2"/>
            <path d="M746.02 168.919L811.91 132.145L877.8 168.919V242.408L811.91 279.182L746.02 242.408V168.919Z" stroke="#7F7F7F" stroke-width="2"/>
            <path d="M878.574 168.919L944.464 132.145L1010.35 168.919V242.408L944.464 279.182L878.574 242.408V168.919Z" stroke="#7F7F7F" stroke-width="2"/>
            <path d="M1011.13 168.919L1077.02 132.145L1142.91 168.919V242.408L1077.02 279.182L1011.13 242.408V168.919Z" stroke="#7F7F7F" stroke-width="2"/>
            <path d="M1143.69 168.919L1209.58 132.145L1275.47 168.919V242.408L1209.58 279.182L1143.69 242.408V168.919Z" stroke="#7F7F7F" stroke-width="2"/>
            <path d="M1276.25 168.919L1342.14 132.145L1408.03 168.919V242.408L1342.14 279.182L1276.25 242.408V168.919Z" stroke="#7F7F7F" stroke-width="2"/>
            <path d="M1408.8 168.919L1474.69 132.145L1540.58 168.919V242.408L1474.69 279.182L1408.8 242.408V168.919Z" stroke="#7F7F7F" stroke-width="2"/>
            <path d="M1541.36 168.919L1607.25 132.145L1673.14 168.919V242.408L1607.25 279.182L1541.36 242.408V168.919Z" stroke="#7F7F7F" stroke-width="2"/>
            <path d="M281.348 277.919L347.238 241.145L413.128 277.919V351.408L347.238 388.182L281.348 351.408V277.919Z" stroke="#7F7F7F" stroke-width="2"/>
            <path d="M413.903 277.919L479.793 241.145L545.682 277.919V351.408L479.793 388.182L413.903 351.408V277.919Z" stroke="#7F7F7F" stroke-width="2"/>
            <path d="M546.461 277.919L612.351 241.145L678.241 277.919V351.408L612.351 388.182L546.461 351.408V277.919Z" stroke="#7F7F7F" stroke-width="2"/>
            <path d="M679.02 277.919L744.91 241.145L810.8 277.919V351.408L744.91 388.182L679.02 351.408V277.919Z" stroke="#7F7F7F" stroke-width="2"/>
            <path d="M811.574 277.919L877.464 241.145L943.354 277.919V351.408L877.464 388.182L811.574 351.408V277.919Z" stroke="#7F7F7F" stroke-width="2"/>
            <path d="M944.133 277.919L1010.02 241.145L1075.91 277.919V351.408L1010.02 388.182L944.133 351.408V277.919Z" stroke="#7F7F7F" stroke-width="2"/>
            <path d="M1076.69 277.919L1142.58 241.145L1208.47 277.919V351.408L1142.58 388.182L1076.69 351.408V277.919Z" stroke="#7F7F7F" stroke-width="2"/>
            <path d="M1209.25 277.919L1275.14 241.145L1341.03 277.919V351.408L1275.14 388.182L1209.25 351.408V277.919Z" stroke="#7F7F7F" stroke-width="2"/>
            <path d="M1341.8 277.919L1407.69 241.145L1473.58 277.919V351.408L1407.69 388.182L1341.8 351.408V277.919Z" stroke="#7F7F7F" stroke-width="2"/>
            <path d="M1474.36 277.919L1540.25 241.145L1606.14 277.919V351.408L1540.25 388.182L1474.36 351.408V277.919Z" stroke="#7F7F7F" stroke-width="2"/>
            <path d="M214.348 386.919L280.238 350.145L346.128 386.919V460.408L280.238 497.182L214.348 460.408V386.919Z" stroke="#7F7F7F" stroke-width="2"/>
            <path d="M346.903 386.919L412.793 350.145L478.682 386.919V460.408L412.793 497.182L346.903 460.408V386.919Z" stroke="#7F7F7F" stroke-width="2"/>
            <path d="M479.461 386.919L545.351 350.145L611.241 386.919V460.408L545.351 497.182L479.461 460.408V386.919Z" stroke="#7F7F7F" stroke-width="2"/>
            <path d="M612.02 386.919L677.91 350.145L743.8 386.919V460.408L677.91 497.182L612.02 460.408V386.919Z" stroke="#7F7F7F" stroke-width="2"/>
            <path d="M744.574 386.919L810.464 350.145L876.354 386.919V460.408L810.464 497.182L744.574 460.408V386.919Z" stroke="#7F7F7F" stroke-width="2"/>
            <path d="M877.133 386.919L943.023 350.145L1008.91 386.919V460.408L943.023 497.182L877.133 460.408V386.919Z" stroke="#7F7F7F" stroke-width="2"/>
            <path d="M1009.69 386.919L1075.58 350.145L1141.47 386.919V460.408L1075.58 497.182L1009.69 460.408V386.919Z" stroke="#7F7F7F" stroke-width="2"/>
            <path d="M1142.25 386.919L1208.14 350.145L1274.03 386.919V460.408L1208.14 497.182L1142.25 460.408V386.919Z" stroke="#7F7F7F" stroke-width="2"/>
            <path d="M1274.8 386.919L1340.69 350.145L1406.58 386.919V460.408L1340.69 497.182L1274.8 460.408V386.919Z" stroke="#7F7F7F" stroke-width="2"/>
            <path d="M1407.36 386.919L1473.25 350.145L1539.14 386.919V460.408L1473.25 497.182L1407.36 460.408V386.919Z" stroke="#7F7F7F" stroke-width="2"/>
            <path d="M1539.35 386.919L1605.24 350.145L1671.13 386.919V460.408L1605.24 497.182L1539.35 460.408V386.919Z" stroke="#7F7F7F" stroke-width="2"/>
            <path d="M147.348 495.919L213.238 459.145L279.128 495.919V569.408L213.238 606.182L147.348 569.408V495.919Z" stroke="#7F7F7F" stroke-width="2"/>
            <path d="M279.903 495.919L345.793 459.145L411.682 495.919V569.408L345.793 606.182L279.903 569.408V495.919Z" stroke="#7F7F7F" stroke-width="2"/>
            <path d="M412.461 495.919L478.351 459.145L544.241 495.919V569.408L478.351 606.182L412.461 569.408V495.919Z" stroke="#7F7F7F" stroke-width="2"/>
            <path d="M545.02 495.919L610.91 459.145L676.8 495.919V569.408L610.91 606.182L545.02 569.408V495.919Z" stroke="#7F7F7F" stroke-width="2"/>
            <path d="M677.574 495.919L743.464 459.145L809.354 495.919V569.408L743.464 606.182L677.574 569.408V495.919Z" stroke="#7F7F7F" stroke-width="2"/>
            <path d="M810.133 495.919L876.023 459.145L941.913 495.919V569.408L876.023 606.182L810.133 569.408V495.919Z" stroke="#7F7F7F" stroke-width="2"/>
            <path d="M942.688 495.919L1008.58 459.145L1074.47 495.919V569.408L1008.58 606.182L942.688 569.408V495.919Z" stroke="#7F7F7F" stroke-width="2"/>
            <path d="M1075.25 495.919L1141.14 459.145L1207.03 495.919V569.408L1141.14 606.182L1075.25 569.408V495.919Z" stroke="#7F7F7F" stroke-width="2"/>
            <path d="M1207.8 495.919L1273.69 459.145L1339.58 495.919V569.408L1273.69 606.182L1207.8 569.408V495.919Z" stroke="#7F7F7F" stroke-width="2"/>
            <path d="M1340.36 495.919L1406.25 459.145L1472.14 495.919V569.408L1406.25 606.182L1340.36 569.408V495.919Z" stroke="#7F7F7F" stroke-width="2"/>
            <path d="M80.3479 604.919L146.238 568.145L212.128 604.919V678.408L146.238 715.182L80.3479 678.408V604.919Z" stroke="#7F7F7F" stroke-width="2"/>
            <path d="M212.903 604.919L278.793 568.145L344.682 604.919V678.408L278.793 715.182L212.903 678.408V604.919Z" stroke="#7F7F7F" stroke-width="2"/>
            <path d="M345.461 604.919L411.351 568.145L477.241 604.919V678.408L411.351 715.182L345.461 678.408V604.919Z" stroke="#7F7F7F" stroke-width="2"/>
            <path d="M478.02 604.919L543.91 568.145L609.8 604.919V678.408L543.91 715.182L478.02 678.408V604.919Z" stroke="#7F7F7F" stroke-width="2"/>
            <path d="M610.574 604.919L676.464 568.145L742.354 604.919V678.408L676.464 715.182L610.574 678.408V604.919Z" stroke="#7F7F7F" stroke-width="2"/>
            <path d="M743.133 604.919L809.023 568.145L874.913 604.919V678.408L809.023 715.182L743.133 678.408V604.919Z" stroke="#7F7F7F" stroke-width="2"/>
            <path d="M875.688 604.919L941.578 568.145L1007.47 604.919V678.408L941.578 715.182L875.688 678.408V604.919Z" stroke="#7F7F7F" stroke-width="2"/>
            <path d="M1008.25 604.919L1074.14 568.145L1140.03 604.919V678.408L1074.14 715.182L1008.25 678.408V604.919Z" stroke="#7F7F7F" stroke-width="2"/>
            <path d="M1140.8 604.919L1206.69 568.145L1272.58 604.919V678.408L1206.69 715.182L1140.8 678.408V604.919Z" stroke="#7F7F7F" stroke-width="2"/>
            <path d="M1273.36 604.919L1339.25 568.145L1405.14 604.919V678.408L1339.25 715.182L1273.36 678.408V604.919Z" stroke="#7F7F7F" stroke-width="2"/>
            <path d="M13.3479 713.919L79.2378 677.145L145.128 713.919V787.408L79.2378 824.182L13.3479 787.408V713.919Z" stroke="#7F7F7F" stroke-width="2"/>
            <path d="M145.903 713.919L211.793 677.145L277.682 713.919V787.408L211.793 824.182L145.903 787.408V713.919Z" stroke="#7F7F7F" stroke-width="2"/>
            <path d="M278.461 713.919L344.351 677.145L410.241 713.919V787.408L344.351 824.182L278.461 787.408V713.919Z" stroke="#7F7F7F" stroke-width="2"/>
            <path d="M411.02 713.919L476.91 677.145L542.8 713.919V787.408L476.91 824.182L411.02 787.408V713.919Z" stroke="#7F7F7F" stroke-width="2"/>
            <path d="M543.574 713.919L609.464 677.145L675.354 713.919V787.408L609.464 824.182L543.574 787.408V713.919Z" stroke="#7F7F7F" stroke-width="2"/>
            <path d="M676.133 713.919L742.023 677.145L807.913 713.919V787.408L742.023 824.182L676.133 787.408V713.919Z" stroke="#7F7F7F" stroke-width="2"/>
            <path d="M808.688 713.919L874.578 677.145L940.468 713.919V787.408L874.578 824.182L808.688 787.408V713.919Z" stroke="#7F7F7F" stroke-width="2"/>
            <path d="M941.246 713.919L1007.14 677.145L1073.03 713.919V787.408L1007.14 824.182L941.246 787.408V713.919Z" stroke="#7F7F7F" stroke-width="2"/>
            <path d="M1073.8 713.919L1139.69 677.145L1205.58 713.919V787.408L1139.69 824.182L1073.8 787.408V713.919Z" stroke="#7F7F7F" stroke-width="2"/>
            <path d="M1206.36 713.919L1272.25 677.145L1338.14 713.919V787.408L1272.25 824.182L1206.36 787.408V713.919Z" stroke="#7F7F7F" stroke-width="2"/>
            <path d="M-53.6521 822.919L12.2378 786.145L78.1277 822.919V896.408L12.2378 933.182L-53.6521 896.408V822.919Z" stroke="#7F7F7F" stroke-width="2"/>
            <path d="M78.9026 822.919L144.793 786.145L210.682 822.919V896.408L144.793 933.182L78.9026 896.408V822.919Z" stroke="#7F7F7F" stroke-width="2"/>
            <path d="M211.461 822.919L277.351 786.145L343.241 822.919V896.408L277.351 933.182L211.461 896.408V822.919Z" stroke="#7F7F7F" stroke-width="2"/>
            <path d="M344.02 822.919L409.91 786.145L475.8 822.919V896.408L409.91 933.182L344.02 896.408V822.919Z" stroke="#7F7F7F" stroke-width="2"/>
            <path d="M476.574 822.919L542.464 786.145L608.354 822.919V896.408L542.464 933.182L476.574 896.408V822.919Z" stroke="#7F7F7F" stroke-width="2"/>
            <path d="M609.133 822.919L675.023 786.145L740.913 822.919V896.408L675.023 933.182L609.133 896.408V822.919Z" stroke="#7F7F7F" stroke-width="2"/>
            <path d="M741.688 822.919L807.578 786.145L873.468 822.919V896.408L807.578 933.182L741.688 896.408V822.919Z" stroke="#7F7F7F" stroke-width="2"/>
            <path d="M874.246 822.919L940.136 786.145L1006.03 822.919V896.408L940.136 933.182L874.246 896.408V822.919Z" stroke="#7F7F7F" stroke-width="2"/>
            <path d="M1006.8 822.919L1072.69 786.145L1138.58 822.919V896.408L1072.69 933.182L1006.8 896.408V822.919Z" stroke="#7F7F7F" stroke-width="2"/>
            <path d="M1139.36 822.919L1205.25 786.145L1271.14 822.919V896.408L1205.25 933.182L1139.36 896.408V822.919Z" stroke="#7F7F7F" stroke-width="2"/>
            <path d="M-120.652 931.919L-54.7622 895.145L11.1277 931.919V1005.41L-54.7622 1042.18L-120.652 1005.41V931.919Z" stroke="#7F7F7F" stroke-width="2"/>
            <path d="M11.9026 931.919L77.7925 895.145L143.682 931.919V1005.41L77.7925 1042.18L11.9026 1005.41V931.919Z" stroke="#7F7F7F" stroke-width="2"/>
            <path d="M144.461 931.919L210.351 895.145L276.241 931.919V1005.41L210.351 1042.18L144.461 1005.41V931.919Z" stroke="#7F7F7F" stroke-width="2"/>
            <path d="M277.02 931.919L342.91 895.145L408.8 931.919V1005.41L342.91 1042.18L277.02 1005.41V931.919Z" stroke="#7F7F7F" stroke-width="2"/>
            <path d="M409.574 931.919L475.464 895.145L541.354 931.919V1005.41L475.464 1042.18L409.574 1005.41V931.919Z" stroke="#7F7F7F" stroke-width="2"/>
            <path d="M542.133 931.919L608.023 895.145L673.913 931.919V1005.41L608.023 1042.18L542.133 1005.41V931.919Z" stroke="#7F7F7F" stroke-width="2"/>
            <path d="M674.688 931.919L740.578 895.145L806.468 931.919V1005.41L740.578 1042.18L674.688 1005.41V931.919Z" stroke="#7F7F7F" stroke-width="2"/>
            <path d="M807.246 931.919L873.136 895.145L939.026 931.919V1005.41L873.136 1042.18L807.246 1005.41V931.919Z" stroke="#7F7F7F" stroke-width="2"/>
            <path d="M939.801 931.919L1005.69 895.145L1071.58 931.919V1005.41L1005.69 1042.18L939.801 1005.41V931.919Z" stroke="#7F7F7F" stroke-width="2"/>
            <path d="M1072.36 931.919L1138.25 895.145L1204.14 931.919V1005.41L1138.25 1042.18L1072.36 1005.41V931.919Z" stroke="#7F7F7F" stroke-width="2"/>
            <path d="M1205.35 931.919L1271.24 895.145L1337.13 931.919V1005.41L1271.24 1042.18L1205.35 1005.41V931.919Z" stroke="#7F7F7F" stroke-width="2"/>
            <path d="M1337.9 931.919L1403.79 895.145L1469.68 931.919V1005.41L1403.79 1042.18L1337.9 1005.41V931.919Z" stroke="#7F7F7F" stroke-width="2"/>
            <path d="M1470.46 931.919L1536.35 895.145L1602.24 931.919V1005.41L1536.35 1042.18L1470.46 1005.41V931.919Z" stroke="#7F7F7F" stroke-width="2"/>
            <path d="M1603.02 931.919L1668.91 895.145L1734.8 931.919V1005.41L1668.91 1042.18L1603.02 1005.41V931.919Z" stroke="#7F7F7F" stroke-width="2"/>
            <path d="M1735.57 931.919L1801.46 895.145L1867.35 931.919V1005.41L1801.46 1042.18L1735.57 1005.41V931.919Z" stroke="#7F7F7F" stroke-width="2"/>
            <path d="M-55.0974 1040.92L10.7925 1004.15L76.6824 1040.92V1114.41L10.7925 1151.18L-55.0974 1114.41V1040.92Z" stroke="#7F7F7F" stroke-width="2"/>
            <path d="M77.4612 1040.92L143.351 1004.15L209.241 1040.92V1114.41L143.351 1151.18L77.4612 1114.41V1040.92Z" stroke="#7F7F7F" stroke-width="2"/>
            <path d="M210.02 1040.92L275.91 1004.15L341.8 1040.92V1114.41L275.91 1151.18L210.02 1114.41V1040.92Z" stroke="#7F7F7F" stroke-width="2"/>
            <path d="M342.574 1040.92L408.464 1004.15L474.354 1040.92V1114.41L408.464 1151.18L342.574 1114.41V1040.92Z" stroke="#7F7F7F" stroke-width="2"/>
            <path d="M475.133 1040.92L541.023 1004.15L606.913 1040.92V1114.41L541.023 1151.18L475.133 1114.41V1040.92Z" stroke="#7F7F7F" stroke-width="2"/>
            <path d="M607.688 1040.92L673.578 1004.15L739.468 1040.92V1114.41L673.578 1151.18L607.688 1114.41V1040.92Z" stroke="#7F7F7F" stroke-width="2"/>
            <path d="M740.246 1040.92L806.136 1004.15L872.026 1040.92V1114.41L806.136 1151.18L740.246 1114.41V1040.92Z" stroke="#7F7F7F" stroke-width="2"/>
            <path d="M872.801 1040.92L938.691 1004.15L1004.58 1040.92V1114.41L938.691 1151.18L872.801 1114.41V1040.92Z" stroke="#7F7F7F" stroke-width="2"/>
            <path d="M1005.36 1040.92L1071.25 1004.15L1137.14 1040.92V1114.41L1071.25 1151.18L1005.36 1114.41V1040.92Z" stroke="#7F7F7F" stroke-width="2"/>
            <path d="M-122.097 1149.92L-56.2075 1113.15L9.68243 1149.92V1223.41L-56.2075 1260.18L-122.097 1223.41V1149.92Z" stroke="#7F7F7F" stroke-width="2"/>
            <path d="M10.4612 1149.92L76.3511 1113.15L142.241 1149.92V1223.41L76.3511 1260.18L10.4612 1223.41V1149.92Z" stroke="#7F7F7F" stroke-width="2"/>
            <path d="M143.02 1149.92L208.91 1113.15L274.8 1149.92V1223.41L208.91 1260.18L143.02 1223.41V1149.92Z" stroke="#7F7F7F" stroke-width="2"/>
            <path d="M275.574 1149.92L341.464 1113.15L407.354 1149.92V1223.41L341.464 1260.18L275.574 1223.41V1149.92Z" stroke="#7F7F7F" stroke-width="2"/>
            <path d="M408.133 1149.92L474.023 1113.15L539.913 1149.92V1223.41L474.023 1260.18L408.133 1223.41V1149.92Z" stroke="#7F7F7F" stroke-width="2"/>
            <path d="M540.688 1149.92L606.578 1113.15L672.468 1149.92V1223.41L606.578 1260.18L540.688 1223.41V1149.92Z" stroke="#7F7F7F" stroke-width="2"/>
            <path d="M673.246 1149.92L739.136 1113.15L805.026 1149.92V1223.41L739.136 1260.18L673.246 1223.41V1149.92Z" stroke="#7F7F7F" stroke-width="2"/>
            <path d="M805.801 1149.92L871.691 1113.15L937.581 1149.92V1223.41L871.691 1260.18L805.801 1223.41V1149.92Z" stroke="#7F7F7F" stroke-width="2"/>
            <path d="M938.36 1149.92L1004.25 1113.15L1070.14 1149.92V1223.41L1004.25 1260.18L938.36 1223.41V1149.92Z" stroke="#7F7F7F" stroke-width="2"/>
            <path d="M1071.35 1150.92L1137.24 1114.15L1203.13 1150.92V1224.41L1137.24 1261.18L1071.35 1224.41V1150.92Z" stroke="#7F7F7F" stroke-width="2"/>
            <path d="M1203.9 1150.92L1269.79 1114.15L1335.68 1150.92V1224.41L1269.79 1261.18L1203.9 1224.41V1150.92Z" stroke="#7F7F7F" stroke-width="2"/>
            <path d="M1336.46 1150.92L1402.35 1114.15L1468.24 1150.92V1224.41L1402.35 1261.18L1336.46 1224.41V1150.92Z" stroke="#7F7F7F" stroke-width="2"/>
            <path d="M1469.02 1150.92L1534.91 1114.15L1600.8 1150.92V1224.41L1534.91 1261.18L1469.02 1224.41V1150.92Z" stroke="#7F7F7F" stroke-width="2"/>
            <path d="M1601.57 1150.92L1667.46 1114.15L1733.35 1150.92V1224.41L1667.46 1261.18L1601.57 1224.41V1150.92Z" stroke="#7F7F7F" stroke-width="2"/>
            <path d="M1607.32 278.093L1673 242.14L1738.68 278.093V349.907L1673 385.86L1607.32 349.907V278.093Z" stroke="#7F7F7F" stroke-width="2"/>
            <path d="M1671.35 386.919L1737.24 350.145L1803.13 386.919V460.408L1737.24 497.182L1671.35 460.408V386.919Z" stroke="#7F7F7F" stroke-width="2"/>
            <path d="M1473.35 495.919L1539.24 459.145L1605.13 495.919V569.408L1539.24 606.182L1473.35 569.408V495.919Z" stroke="#7F7F7F" stroke-width="2"/>
            <path d="M1605.9 495.919L1671.79 459.145L1737.68 495.919V569.408L1671.79 606.182L1605.9 569.408V495.919Z" stroke="#7F7F7F" stroke-width="2"/>
            <path d="M1406.35 605.919L1472.24 569.145L1538.13 605.919V679.408L1472.24 716.182L1406.35 679.408V605.919Z" stroke="#7F7F7F" stroke-width="2"/>
            <path d="M1538.9 605.919L1604.79 569.145L1670.68 605.919V679.408L1604.79 716.182L1538.9 679.408V605.919Z" stroke="#7F7F7F" stroke-width="2"/>
            <path d="M1671.46 605.919L1737.35 569.145L1803.24 605.919V679.408L1737.35 716.182L1671.46 679.408V605.919Z" stroke="#7F7F7F" stroke-width="2"/>
            <path d="M1339.35 715.919L1405.24 679.145L1471.13 715.919V789.408L1405.24 826.182L1339.35 789.408V715.919Z" stroke="#7F7F7F" stroke-width="2"/>
            <path d="M1471.9 715.919L1537.79 679.145L1603.68 715.919V789.408L1537.79 826.182L1471.9 789.408V715.919Z" stroke="#7F7F7F" stroke-width="2"/>
            <path d="M1604.46 715.919L1670.35 679.145L1736.24 715.919V789.408L1670.35 826.182L1604.46 789.408V715.919Z" stroke="#7F7F7F" stroke-width="2"/>
            <path d="M1272.35 823.919L1338.24 787.145L1404.13 823.919V897.408L1338.24 934.182L1272.35 897.408V823.919Z" stroke="#7F7F7F" stroke-width="2"/>
            <path d="M1404.9 823.919L1470.79 787.145L1536.68 823.919V897.408L1470.79 934.182L1404.9 897.408V823.919Z" stroke="#7F7F7F" stroke-width="2"/>
            <path d="M1537.46 823.919L1603.35 787.145L1669.24 823.919V897.408L1603.35 934.182L1537.46 897.408V823.919Z" stroke="#7F7F7F" stroke-width="2"/>
            <path d="M1670.02 823.919L1735.91 787.145L1801.8 823.919V897.408L1735.91 934.182L1670.02 897.408V823.919Z" stroke="#7F7F7F" stroke-width="2"/>
            <path d="M1802.57 823.919L1868.46 787.145L1934.35 823.919V897.408L1868.46 934.182L1802.57 897.408V823.919Z" stroke="#7F7F7F" stroke-width="2"/>
            <path d="M1137.35 1041.92L1203.24 1005.15L1269.13 1041.92V1115.41L1203.24 1152.18L1137.35 1115.41V1041.92Z" stroke="#7F7F7F" stroke-width="2"/>
            <path d="M1269.9 1041.92L1335.79 1005.15L1401.68 1041.92V1115.41L1335.79 1152.18L1269.9 1115.41V1041.92Z" stroke="#7F7F7F" stroke-width="2"/>
            <path d="M1402.46 1041.92L1468.35 1005.15L1534.24 1041.92V1115.41L1468.35 1152.18L1402.46 1115.41V1041.92Z" stroke="#7F7F7F" stroke-width="2"/>
            <path d="M1535.02 1041.92L1600.91 1005.15L1666.8 1041.92V1115.41L1600.91 1152.18L1535.02 1115.41V1041.92Z" stroke="#7F7F7F" stroke-width="2"/>
            <path d="M1667.57 1041.92L1733.46 1005.15L1799.35 1041.92V1115.41L1733.46 1152.18L1667.57 1115.41V1041.92Z" stroke="#7F7F7F" stroke-width="2"/>
        </g>
    </g>
    <defs>
        <radialGradient id="paint0_radial_311_50" cx="0" cy="0" r="1" gradientUnits="userSpaceOnUse" gradientTransform="translate(949 631) rotate(90) scale(705.668 1073.6)">
            <stop/>
            <stop offset="1" stop-opacity="0"/>
        </radialGradient>
        <clipPath id="clip0_311_50">
            <rect width="1920" height="1262" rx="24" fill="white"/>
        </clipPath>
    </defs>
</svg>
