<svg width="55" height="15" viewBox="0 0 55 15" fill="none" xmlns="http://www.w3.org/2000/svg">
<g clip-path="url(#clip0_315_89)">
<path d="M5.99609 0H0V14.3398L5.99609 0Z" fill="#FA0C00"/>
<path d="M10.2148 0H16.2031V14.3398L10.2148 0Z" fill="#FA0C00"/>
<path d="M8.10547 5.28516L11.9219 14.3398H9.41797L8.27734 11.457H5.48438L8.10547 5.28516Z" fill="#FA0C00"/>
<path d="M25.987 9.11923L26.694 11.1466C26.7175 11.1974 26.7526 11.2208 26.8151 11.2208H28.1745C28.2487 11.2208 28.2604 11.1856 28.2487 11.1114L25.4401 3.31064C25.4284 3.24814 25.4167 3.23642 25.3542 3.23642H23.6667C23.6198 3.23642 23.5925 3.27158 23.5925 3.32236C23.569 3.73251 23.5339 3.85751 23.4831 3.97861L20.9792 11.0997C20.9675 11.1856 20.9948 11.2208 21.0651 11.2208H22.28C22.3542 11.2208 22.3893 11.1974 22.4167 11.1231L23.0847 9.11923H25.987ZM23.4714 7.79501C23.8386 6.68564 24.3229 5.26376 24.5183 4.45126H24.53C24.7722 5.30283 25.3425 6.99033 25.6003 7.79501H23.4714Z" fill="#FA0C00"/>
<path d="M31.8594 11.3419C32.5898 11.3419 33.3672 11.2091 34.1562 10.8692C34.2188 10.8458 34.2305 10.8185 34.2305 10.7599C34.207 10.5411 34.1797 10.2247 34.1797 9.98251V2.63876C34.1797 2.59189 34.1797 2.56845 34.1211 2.56845H32.7969C32.7461 2.56845 32.7227 2.59189 32.7227 2.65439V5.14267C32.5156 5.11923 32.3711 5.10751 32.1992 5.10751C30.0625 5.10751 28.75 6.51767 28.75 8.27939C28.75 10.3224 30.0977 11.3419 31.8594 11.3419ZM32.7227 9.98251C32.5039 10.0528 32.2617 10.0802 32.0156 10.0802C31.0469 10.0802 30.2539 9.5333 30.2539 8.20517C30.2539 7.02939 31.0703 6.33408 32.1523 6.33408C32.3711 6.33408 32.5625 6.35751 32.7227 6.42001V9.98251Z" fill="#FA0C00"/>
<path d="M38.4531 5.10751C36.6289 5.10751 35.5 6.50595 35.5 8.23251C35.5 9.77548 36.3984 11.3419 38.4258 11.3419C40.1406 11.3419 41.3438 10.0802 41.3438 8.19345C41.3438 6.52939 40.3242 5.10751 38.4531 5.10751ZM38.3789 6.33408C39.4102 6.33408 39.8477 7.22079 39.8477 8.23251C39.8477 9.48251 39.2031 10.1036 38.4531 10.1036C37.5273 10.1036 36.9805 9.32626 36.9805 8.20517C36.9805 7.05283 37.5625 6.33408 38.3789 6.33408Z" fill="#FA0C00"/>
<path d="M42.7148 2.56845C42.6641 2.56845 42.6289 2.59189 42.6289 2.65439V10.9669C42.6289 11.002 42.6641 11.0645 42.7148 11.0763C43.2969 11.256 43.9063 11.3419 44.5352 11.3419C46.3359 11.3419 48.0859 10.2247 48.0859 7.9747C48.0859 6.34579 46.9688 5.10751 45.2188 5.10751C44.8164 5.10751 44.4414 5.17001 44.1133 5.27939L44.0977 2.66611C44.0977 2.58017 44.0742 2.56845 43.9883 2.56845H42.7148ZM46.5898 8.12314C46.5898 9.47079 45.668 10.1036 44.6719 10.1036C44.4648 10.1036 44.2813 10.0919 44.1133 10.0411V6.49423C44.3047 6.42001 44.5352 6.35751 44.9609 6.35751C45.9219 6.35751 46.5898 6.96689 46.5898 8.12314Z" fill="#FA0C00"/>
<path d="M53.0273 8.56064C53.6211 8.56064 54.1094 8.54892 54.2773 8.50986C54.3398 8.49814 54.3633 8.4747 54.375 8.42392C54.4102 8.29111 54.4258 8.01376 54.4258 7.67392C54.4258 6.51767 53.7305 5.10751 51.9336 5.10751C50.0977 5.10751 49.0781 6.60361 49.0781 8.29111C49.0781 9.7872 49.8672 11.3419 52.0781 11.3419C52.9062 11.3419 53.4414 11.2091 53.9023 10.9903C53.9492 10.9669 53.9727 10.9278 53.9727 10.8575V9.84579C53.9727 9.7872 53.9375 9.77548 53.9023 9.79892C53.4414 9.99423 52.9414 10.0919 52.3945 10.0919C51.1563 10.0919 50.5937 9.40829 50.5586 8.56064H53.0273ZM50.5586 7.51376C50.6562 6.92001 51.0312 6.27548 51.8711 6.27548C52.7969 6.27548 53.0391 7.05283 53.0391 7.40439C53.0391 7.41611 53.0391 7.46689 53.0391 7.50204C52.9883 7.51376 52.832 7.51376 52.3711 7.51376H50.5586Z" fill="#FA0C00"/>
</g>
<defs>
<clipPath id="clip0_315_89">
<rect width="54.4245" height="14.3398" fill="white"/>
</clipPath>
</defs>
</svg>
