<svg width="800" height="262" viewBox="0 0 800 262" fill="none" xmlns="http://www.w3.org/2000/svg">
<g clip-path="url(#clip0_315_57)">
<path d="M98.5235 0.463074H105.638C130.336 0.999987 154.631 10.9329 172.081 28.5168C165.638 35.0939 159.06 41.4027 152.752 47.9799C142.953 39.1208 131.141 32.2752 118.255 29.859C99.1946 25.8322 78.6577 29.4564 62.6846 40.3288C45.2349 51.7382 33.4228 71.0671 30.8725 91.7382C28.0537 112.141 33.8255 133.617 47.1141 149.456C59.8658 164.893 79.3289 174.557 99.4631 175.228C118.255 176.302 137.852 170.53 151.544 157.376C162.282 148.114 167.248 134.02 168.859 120.329C146.577 120.329 124.295 120.463 102.013 120.329V92.6778H195.839C200.671 122.342 193.691 155.765 171.141 176.973C156.107 192.007 135.302 200.866 114.094 202.611C93.557 204.624 72.349 200.732 54.094 190.799C32.2148 179.121 14.7651 159.389 6.1745 136.168C-1.87919 114.825 -2.01342 90.6644 5.50336 69.1879C12.349 49.5906 25.5034 32.2752 42.4161 20.1946C58.6577 8.24831 78.3893 1.67113 98.5235 0.463074Z" fill="#3780FF"/>
<path d="M636.777 7.44299H665.502V199.121C655.972 199.121 646.308 199.255 636.777 198.987C636.912 135.228 636.777 71.3356 636.777 7.44299Z" fill="#38B137"/>
<path d="M259.73 73.8859C277.448 70.5302 296.642 74.2886 311.273 84.8926C324.562 94.2886 333.824 109.054 336.642 125.161C340.267 143.819 335.703 164.221 323.622 178.987C310.602 195.497 289.26 204.356 268.454 203.013C249.394 201.94 230.871 192.409 219.595 176.839C206.844 159.658 203.756 136.034 210.736 115.899C217.716 94.2886 237.448 77.7785 259.73 73.8859ZM263.756 99.3892C256.508 101.268 249.797 105.43 244.965 111.336C231.944 126.906 232.75 152.275 247.112 166.772C255.3 175.094 267.649 178.987 279.058 176.705C289.662 174.825 298.924 167.711 304.025 158.315C312.884 142.342 310.334 120.329 296.777 107.846C288.052 99.7919 275.3 96.4362 263.756 99.3892Z" fill="#FA3913"/>
<path d="M402.012 73.8859C422.28 69.9933 444.428 75.6308 459.596 89.859C484.294 112.007 486.978 153.483 465.904 178.987C453.153 195.094 432.481 203.953 412.079 203.013C392.616 202.476 373.421 192.812 361.877 176.839C348.857 159.255 346.038 135.094 353.421 114.557C360.804 93.6174 380.132 77.6443 402.012 73.8859ZM406.038 99.3892C398.79 101.268 392.079 105.43 387.247 111.201C374.361 126.503 374.898 151.47 388.723 166.101C396.911 174.825 409.663 179.121 421.475 176.705C431.945 174.691 441.341 167.711 446.441 158.315C455.166 142.208 452.616 120.195 438.924 107.711C430.2 99.6577 417.448 96.4362 406.038 99.3892Z" fill="#FCBD06"/>
<path d="M522.684 81.6711C538.12 72.0067 558.657 69.3222 575.302 77.6443C580.536 79.9262 584.832 83.8188 588.993 87.7114C589.127 84.0873 588.993 80.3289 589.127 76.5705C598.12 76.7047 607.114 76.5705 616.241 76.7047V195.094C616.107 212.946 611.543 231.872 598.657 244.893C584.563 259.255 562.953 263.685 543.489 260.732C522.684 257.644 504.563 242.477 496.51 223.282C504.563 219.389 513.02 216.302 521.342 212.678C526.04 223.685 535.57 233.081 547.516 235.228C559.463 237.376 573.288 234.423 581.073 224.49C589.396 214.289 589.396 200.329 588.993 187.846C582.818 193.886 575.704 199.255 567.114 201.268C548.456 206.503 527.919 200.06 513.557 187.443C499.06 174.826 490.469 155.362 491.275 136.034C491.677 114.154 504.026 93.0805 522.684 81.6711ZM550.469 98.8524C542.281 100.195 534.63 104.758 529.396 111.067C516.778 126.101 516.778 150.128 529.53 164.893C536.778 173.617 548.456 178.45 559.731 177.242C570.335 176.168 580.134 169.456 585.369 160.195C594.228 144.49 592.751 123.148 580.805 109.456C573.422 101 561.61 96.8389 550.469 98.8524Z" fill="#3780FF"/>
<path d="M700 88.5168C716.108 73.4832 740.94 68.3825 761.611 76.302C781.208 83.6846 793.691 102.342 800 121.537C770.873 133.617 741.879 145.564 712.752 157.644C716.779 165.295 722.953 172.275 731.275 175.094C742.953 179.255 756.913 177.779 766.712 169.993C770.604 167.04 773.691 163.148 776.644 159.389C784.027 164.356 791.41 169.188 798.792 174.154C788.322 189.859 770.738 200.866 751.812 202.611C730.873 205.161 708.591 197.107 695.034 180.732C672.752 154.96 674.9 111.738 700 88.5168ZM714.363 113.349C709.799 119.926 707.92 127.98 708.054 135.899C727.517 127.846 746.98 119.792 766.443 111.604C763.222 104.087 755.436 99.5235 747.517 98.3154C734.765 96.0336 721.477 102.879 714.363 113.349Z" fill="#FA3913"/>
</g>
<defs>
<clipPath id="clip0_315_57">
<rect width="800" height="262" fill="white"/>
</clipPath>
</defs>
</svg>
