<svg width="208" height="231" viewBox="0 0 208 231" fill="none" xmlns="http://www.w3.org/2000/svg">
   <path d="M199.747 109.704C194.659 100.951 187.503 93.9342 178.556 88.6514C171.87 84.7592 164.938 82.2889 157.125 81.2279V53.4154C164.938 50.0982 169.786 42.7561 169.786 34.1904C169.786 22.5154 160.423 13.0545 148.758 13.0545C137.083 13.0545 127.556 22.5154 127.556 34.1904C127.556 42.7561 132.125 50.0982 139.938 53.4154V81.2404C133.688 82.1436 127.206 84.092 121.287 87.0857C109.198 77.9045 69.5578 47.7842 46.3687 30.192C46.9187 28.2092 47.3422 26.1654 47.3422 24.0092C47.3422 11.0779 36.8703 0.59668 23.9344 0.59668C10.9984 0.59668 0.53125 11.0779 0.53125 24.0092C0.53125 36.9389 11.0094 47.4232 23.9453 47.4232C28.3578 47.4232 32.439 46.1326 35.9609 44.0107L40.8547 47.7232L108.098 96.1732C104.544 99.4373 101.233 103.15 98.5844 107.315C93.2172 115.808 89.9375 125.151 89.9375 135.344V137.47C89.9375 144.625 91.2969 151.379 93.6125 157.725C95.6515 163.265 98.6328 168.303 102.325 172.858L80.0078 195.229C78.0281 194.5 75.9484 194.1 73.7781 194.1C68.9469 194.1 64.4156 195.987 60.9984 199.398C57.5781 202.819 55.7047 207.361 55.7047 212.195C55.7063 217.028 57.589 221.57 61.0078 224.987C64.425 228.406 68.9672 230.29 73.8016 230.29C78.6359 230.29 83.1797 228.406 86.6 224.987C90.0125 221.57 91.8969 217.026 91.8969 212.195C91.8969 210.325 91.6078 208.5 91.0641 206.765L114.131 183.695C117.294 185.879 120.709 187.719 124.381 189.304C131.623 192.436 139.617 194.344 148.366 194.344H149.969C159.641 194.344 168.764 192.072 177.341 187.425C186.378 182.514 193.452 175.798 198.795 167.225C204.167 158.628 207.125 149.129 207.125 138.679V138.158C207.125 127.878 204.745 118.394 199.747 109.704ZM171.562 158.1C165.302 165.058 158.105 169.344 149.969 169.344H148.628C143.981 169.344 139.436 168.059 134.986 165.723C129.97 163.151 126.158 159.483 123.037 154.837C119.812 150.278 118.063 145.3 118.063 140.022V138.419C118.063 133.229 119.058 128.309 121.567 123.662C124.25 118.583 127.873 114.633 132.692 111.492C137.423 108.373 142.477 106.844 148.105 106.844H148.628C153.731 106.844 158.563 107.85 163.122 110.183C167.767 112.67 171.562 116.069 174.505 120.539C177.362 125.011 179.063 129.834 179.609 135.089C179.695 136.181 179.739 137.3 179.739 138.369C179.739 145.5 177.014 152.104 171.562 158.1Z" fill="#F8761F"/>
</svg>
