<svg width="800" height="320" viewBox="0 0 800 320" fill="none" xmlns="http://www.w3.org/2000/svg">
<g clip-path="url(#clip0_315_74)">
<path d="M0 0V21.8936H155.718V0H0ZM177.781 0V21.8936H399.687C399.687 21.8936 377.021 0 347 0H177.781ZM443.218 0V21.8936H577.468L569.5 0H443.218ZM673.718 0L665.75 21.8936H798.781V0H673.718ZM0 42.5776V64.4712H155.718V42.5776H0ZM177.781 42.6088V64.472H425.437C425.437 64.472 422.545 47.6216 417.499 42.6088H177.781ZM443.218 42.6088V64.472H592.187L584.812 42.6088H443.218ZM657.781 42.6088L650.406 64.472H798.781V42.6088H657.781ZM44.7496 85.1552V107.08H112.187V85.1552H44.7496ZM222.531 85.1552V107.08H289.969V85.1552H222.531ZM355.562 85.1552V107.08H423C423 107.08 427.282 95.5016 427.282 85.1552H355.562ZM487.969 85.1552V107.08H607.531L599.562 85.1552H487.969ZM643.094 85.1552L635.094 107.08H755.25V85.1552H643.094ZM44.7496 127.765V149.658H112.187V127.765H44.7496ZM222.531 127.765V149.658H394.781C394.781 149.658 409.19 138.425 413.781 127.765H222.531ZM487.969 127.765V149.658H555.406V137.471L559.688 149.658H683.219L687.813 137.471V149.658H755.25V127.765H628.656L621.938 146.309L615.187 127.765H487.969ZM44.7496 170.342V192.236H112.187V170.342H44.7496ZM222.531 170.342V192.236H413.781C409.19 181.611 394.781 170.342 394.781 170.342H222.531ZM487.969 170.342V192.236H555.406V170.342H487.969ZM567.656 170.342L575.812 192.236H668.437L676.187 170.342H567.656ZM687.812 170.342V192.236H755.25V170.342H687.812ZM44.7496 212.92V234.813H112.187V212.92H44.7496ZM222.531 212.92V234.813H289.969V212.92H222.531ZM355.562 212.92V234.813H427.281C427.281 224.481 422.999 212.92 422.999 212.92H355.562ZM487.969 212.92V234.813H555.406V212.92H487.969ZM582.969 212.92L590.875 234.813H652.969L660.938 212.92H582.969ZM687.812 212.92V234.813H755.25V212.92H687.812ZM1.2184 255.498V277.422H156.937V255.498H1.2184ZM177.781 255.498V277.422H417.499C422.545 272.402 425.437 255.498 425.437 255.498H177.781ZM444.438 255.498V277.422H555.406V255.498H444.438ZM598.312 255.498L606.437 277.422H638.03L645.655 255.498H598.312ZM687.812 255.498V277.422H800V255.498H687.812ZM1.2184 298.106V320H156.937V298.106H1.2184ZM177.781 298.106V319.969H347C377.021 319.969 399.687 298.106 399.687 298.106H177.781ZM444.438 298.106V320H555.406V298.106H444.438ZM613.718 298.106L621.531 319.938L622.875 319.969L630.813 298.106H613.718ZM687.812 298.106V320H800V298.106H687.812Z" fill="#1F70C1"/>
</g>
<defs>
<clipPath id="clip0_315_74">
<rect width="800" height="320" fill="white"/>
</clipPath>
</defs>
</svg>
