<svg width="800" height="172" viewBox="0 0 800 172" fill="none" xmlns="http://www.w3.org/2000/svg">
<g clip-path="url(#clip0_315_65)">
<path d="M799.999 77.8703V63.8011H782.528V41.9288L781.94 42.1099L765.53 47.1309L765.206 47.2292V63.8019H739.305V54.5695C739.305 50.2705 740.266 46.9807 742.161 44.7868C744.042 42.6191 746.733 41.5171 750.165 41.5171C752.632 41.5171 755.187 42.0983 757.757 43.2444L758.402 43.5323V28.7155L758.099 28.6041C755.701 27.742 752.439 27.3078 748.395 27.3078C743.299 27.3078 738.669 28.4168 734.631 30.6146C730.59 32.8156 727.412 35.9575 725.185 39.9523C722.967 43.9425 721.841 48.551 721.841 53.6509V63.8011H709.675V77.8703H721.841V137.141H739.305V77.8703H765.206V115.536C765.206 131.049 772.523 138.91 786.954 138.91C789.325 138.91 791.821 138.632 794.369 138.088C796.963 137.529 798.73 136.971 799.77 136.375L800 136.239V122.04L799.29 122.51C798.342 123.141 797.161 123.657 795.778 124.041C794.388 124.432 793.227 124.628 792.328 124.628C788.947 124.628 786.446 123.717 784.895 121.919C783.325 120.105 782.529 116.933 782.529 112.495V77.8703H799.999ZM670.675 124.63C664.336 124.63 659.338 122.528 655.816 118.388C652.272 114.227 650.477 108.294 650.477 100.756C650.477 92.9797 652.272 86.8931 655.818 82.6584C659.342 78.4515 664.292 76.3164 670.532 76.3164C676.588 76.3164 681.408 78.3556 684.861 82.3805C688.332 86.4264 690.093 92.4643 690.093 100.332C690.093 108.296 688.437 114.413 685.171 118.505C681.928 122.567 677.051 124.63 670.675 124.63ZM671.451 62.0343C659.357 62.0343 649.752 65.578 642.903 72.5669C636.059 79.5566 632.589 89.2294 632.589 101.319C632.589 112.802 635.976 122.038 642.658 128.767C649.339 135.498 658.433 138.908 669.683 138.908C681.405 138.908 690.82 135.315 697.665 128.229C704.51 121.151 707.978 111.57 707.978 99.7628C707.978 88.1003 704.724 78.7951 698.303 72.1111C691.879 65.424 682.843 62.0343 671.451 62.0343ZM604.431 62.0343C596.204 62.0343 589.4 64.1385 584.202 68.2873C578.972 72.4609 576.319 77.9346 576.319 84.5583C576.319 88.0013 576.891 91.0597 578.018 93.6537C579.152 96.2563 580.906 98.5478 583.237 100.471C585.55 102.379 589.121 104.377 593.853 106.41C597.83 108.046 600.797 109.431 602.681 110.522C604.523 111.592 605.83 112.667 606.568 113.714C607.286 114.738 607.649 116.14 607.649 117.871C607.649 122.798 603.96 125.196 596.367 125.196C593.551 125.196 590.338 124.608 586.82 123.448C583.326 122.307 580.028 120.634 577.042 118.491L576.317 117.971V134.785L576.583 134.909C579.054 136.049 582.17 137.011 585.842 137.768C589.507 138.526 592.837 138.911 595.73 138.911C604.657 138.911 611.845 136.797 617.091 132.623C622.37 128.421 625.045 122.818 625.045 115.966C625.045 111.022 623.605 106.783 620.766 103.364C617.947 99.9725 613.053 96.8592 606.229 94.1072C600.791 91.9249 597.308 90.1132 595.871 88.7225C594.486 87.3791 593.782 85.4792 593.782 83.0732C593.782 80.9403 594.651 79.2316 596.433 77.8479C598.229 76.4572 600.729 75.7499 603.865 75.7499C606.775 75.7499 609.752 76.2096 612.713 77.1104C615.672 78.0112 618.27 79.2177 620.439 80.6935L621.153 81.181V65.2313L620.879 65.1136C618.878 64.2554 616.239 63.521 613.033 62.9251C609.843 62.3331 606.948 62.0343 604.431 62.0343ZM530.79 124.63C524.453 124.63 519.454 122.528 515.933 118.388C512.388 114.227 510.596 108.296 510.596 100.756C510.596 92.9797 512.39 86.8931 515.936 82.6584C519.458 78.4515 524.407 76.3164 530.65 76.3164C536.704 76.3164 541.524 78.3556 544.978 82.3805C548.449 86.4264 550.209 92.4643 550.209 100.332C550.209 108.296 548.553 114.413 545.287 118.505C542.043 122.567 537.169 124.63 530.79 124.63ZM531.569 62.0343C519.472 62.0343 509.866 65.578 503.021 72.5669C496.177 79.5566 492.704 89.2294 492.704 101.319C492.704 112.807 496.094 122.038 502.776 128.767C509.457 135.498 518.55 138.908 529.8 138.908C541.521 138.908 550.938 135.315 557.783 128.229C564.627 121.151 568.096 111.57 568.096 99.7628C568.096 88.1003 564.841 78.7951 558.419 72.1111C551.993 65.424 542.959 62.0343 531.569 62.0343ZM466.194 76.5021V63.8011H448.943V137.14H466.194V99.6242C466.194 93.2451 467.641 88.0044 470.495 84.0459C473.312 80.1347 477.067 78.1528 481.652 78.1528C483.206 78.1528 484.95 78.409 486.839 78.9159C488.709 79.4197 490.063 79.9668 490.862 80.5426L491.587 81.068V63.6758L491.308 63.5558C489.701 62.8732 487.428 62.5289 484.552 62.5289C480.217 62.5289 476.337 63.9219 473.014 66.6645C470.098 69.0752 467.99 72.3804 466.378 76.5021H466.194ZM418.049 62.0343C410.134 62.0343 403.075 63.7315 397.07 67.077C391.053 70.4302 386.4 75.2175 383.234 81.3048C380.082 87.3775 378.481 94.4709 378.481 102.382C378.481 109.311 380.033 115.67 383.1 121.274C386.168 126.888 390.511 131.28 396.009 134.326C401.499 137.368 407.844 138.91 414.869 138.91C423.068 138.91 430.068 137.271 435.68 134.039L435.907 133.909V118.104L435.182 118.633C432.639 120.485 429.798 121.963 426.742 123.028C423.692 124.092 420.913 124.63 418.475 124.63C411.706 124.63 406.272 122.512 402.327 118.336C398.374 114.155 396.37 108.283 396.37 100.895C396.37 93.4602 398.46 87.4379 402.579 82.9942C406.686 78.5637 412.131 76.3164 418.76 76.3164C424.43 76.3164 429.955 78.2364 435.183 82.0284L435.907 82.5539V65.9007L435.673 65.7691C433.706 64.6679 431.023 63.7586 427.692 63.069C424.375 62.381 421.131 62.0343 418.049 62.0343ZM366.6 63.8019H349.348V137.14H366.6V63.8019ZM358.151 32.5594C355.311 32.5594 352.835 33.526 350.8 35.4414C348.757 37.3621 347.721 39.7805 347.721 42.6346C347.721 45.4438 348.745 47.8181 350.769 49.6878C352.779 51.5521 355.263 52.497 358.151 52.497C361.039 52.497 363.532 51.5521 365.567 49.6909C367.614 47.8181 368.653 45.4446 368.653 42.6346C368.653 39.8804 367.642 37.4867 365.651 35.5187C363.661 33.5546 361.137 32.5594 358.151 32.5594ZM315.107 58.3909V137.14H332.713V34.8044H308.346L277.373 110.816L247.316 34.8044H221.957V137.139H238.502V58.3832H239.07L270.809 137.14H283.295L314.539 58.3909H315.107Z" fill="#706D6E"/>
<path d="M81.1557 81.763H0V0.607269H81.1557V81.763Z" fill="#F1511B"/>
<path d="M170.76 81.763H89.6055V0.607269H170.76V81.763Z" fill="#80CC28"/>
<path d="M81.1534 171.4H0V90.2448H81.1534V171.4Z" fill="#00ADEF"/>
<path d="M170.76 171.4H89.6055V90.2448H170.76V171.4Z" fill="#FBBC09"/>
</g>
<defs>
<clipPath id="clip0_315_65">
<rect width="800" height="172" fill="white"/>
</clipPath>
</defs>
</svg>
