<svg width="800" height="104" viewBox="0 0 800 104" fill="none" xmlns="http://www.w3.org/2000/svg">
<path d="M345.366 67.317H398.228L370.277 22.3468L318.976 103.655H295.628L358.027 5.98656C360.74 2.04035 365.261 -0.34375 370.277 -0.34375C375.127 -0.34375 379.648 1.95818 382.279 5.82214L444.925 103.655H421.577L410.561 85.4859H357.04L345.366 67.317ZM587.892 85.4859V0.642799H568.079V93.7894C568.079 96.338 569.066 98.8043 570.957 100.695C572.847 102.586 575.396 103.655 578.191 103.655H668.543L680.217 85.4859H587.892ZM260.112 70.2766C279.35 70.2766 294.97 54.7385 294.97 35.5008C294.97 16.2631 279.35 0.642799 260.112 0.642799H173.435V103.655H193.24V18.8117H258.796C268.004 18.8117 275.403 26.293 275.403 35.5008C275.403 44.7086 268.004 52.1899 258.796 52.1899L202.942 52.1077L262.085 103.655H290.859L251.069 70.2766H260.112ZM51.5147 103.655C23.0772 103.655 0 80.6354 0 52.1899C0 23.7444 23.0772 0.642799 51.5147 0.642799H111.39C139.835 0.642799 162.896 23.7444 162.896 52.1899C162.896 80.6354 139.835 103.655 111.39 103.655H51.5147ZM110.058 85.4859C128.482 85.4859 143.403 70.6054 143.403 52.1899C143.403 33.7743 128.482 18.8117 110.058 18.8117H52.8381C34.4225 18.8117 19.4924 33.7743 19.4924 52.1899C19.4924 70.6054 34.4225 85.4859 52.8381 85.4859H110.058ZM486.278 103.655C457.832 103.655 434.731 80.6354 434.731 52.1899C434.731 23.7444 457.832 0.642799 486.278 0.642799H557.391L545.8 18.8117H487.593C469.178 18.8117 454.215 33.7743 454.215 52.1899C454.215 70.6054 469.178 85.4859 487.593 85.4859H559.036L547.362 103.655H486.278ZM728.558 85.4859C713.348 85.4859 700.441 75.2916 696.495 61.2332H781.174L792.848 43.0643H696.495C700.441 29.0882 713.348 18.8117 728.558 18.8117H786.682L798.438 0.642799H727.242C698.797 0.642799 675.695 23.7444 675.695 52.1899C675.695 80.6354 698.797 103.655 727.242 103.655H788.326L800 85.4859H728.558Z" fill="#EA1B22"/>
</svg>
