<svg width="400" height="400" viewBox="0 0 400 400" fill="none" xmlns="http://www.w3.org/2000/svg">
    <g clip-path="url(#clip0_291_442)">
        <path fill-rule="evenodd" clip-rule="evenodd" d="M0 0H400V400H0V0Z" fill="#635BFF"/>
        <path fill-rule="evenodd" clip-rule="evenodd" d="M184.401 155.5C184.401 146.1 192.101 142.4 204.901 142.4C223.301 142.4 246.501 148 264.901 157.9V101.1C244.801 93.1 225.001 90 205.001 90C155.901 90 123.301 115.6 123.301 158.4C123.301 225.1 215.201 214.5 215.201 243.3C215.201 254.4 205.501 258 192.001 258C171.901 258 146.301 249.8 126.001 238.7V296.2C148.501 305.9 171.201 310 192.001 310C242.301 310 276.901 285.1 276.901 241.8C276.501 169.8 184.401 182.6 184.401 155.5Z" fill="white"/>
    </g>
    <defs>
        <clipPath id="clip0_291_442">
            <rect width="400" height="400" rx="48" fill="white"/>
        </clipPath>
    </defs>
</svg>
